<svg xmlns="http://www.w3.org/2000/svg" viewBox="0 0 1200 1200" width="1200" height="1200">
  <defs>
    <filter id="watercolor-blur" x="-40%" y="-40%" width="180%" height="180%">
      <feGaussianBlur stdDeviation="14.2"/>
    </filter>
    <filter id="highlight-glow" x="-80%" y="-80%" width="260%" height="260%">
      <feGaussianBlur stdDeviation="6"/>
    </filter>
  </defs>
  <rect id="layer-background" width="1200" height="1200" fill="#000000"/>
  <g id="layer-canvas-texture" opacity="0.040"><pattern id="canvas-weave" width="8" height="8" patternUnits="userSpaceOnUse">
    <path d="M0 8 L8 0 M-2 2 L2 -2 M6 10 L10 6" stroke="#888" stroke-width="0.4" opacity="0.08"/>
  </pattern>
  <rect width="1200" height="1200" fill="url(#canvas-weave)" opacity="0.040"/><line x1="738.5" y1="204.9" x2="732.8" y2="206.0" stroke="#c8c0b0" stroke-width="0.70" opacity="0.23"/><line x1="620.4" y1="1145.7" x2="621.6" y2="1150.4" stroke="#c8c0b0" stroke-width="0.45" opacity="0.28"/><line x1="1069.7" y1="824.8" x2="1064.3" y2="836.2" stroke="#c8c0b0" stroke-width="0.36" opacity="0.46"/><line x1="86.9" y1="216.8" x2="97.7" y2="232.3" stroke="#c8c0b0" stroke-width="0.45" opacity="0.33"/><line x1="524.0" y1="693.4" x2="538.6" y2="700.6" stroke="#c8c0b0" stroke-width="0.76" opacity="0.30"/><line x1="2.5" y1="687.6" x2="10.5" y2="692.1" stroke="#c8c0b0" stroke-width="0.59" opacity="0.34"/><line x1="921.5" y1="1112.8" x2="938.6" y2="1117.6" stroke="#c8c0b0" stroke-width="0.87" opacity="0.29"/><line x1="911.7" y1="630.5" x2="905.9" y2="646.8" stroke="#c8c0b0" stroke-width="0.76" opacity="0.30"/><line x1="218.5" y1="788.6" x2="217.2" y2="804.2" stroke="#c8c0b0" stroke-width="0.87" opacity="0.46"/><line x1="110.2" y1="651.9" x2="104.7" y2="661.3" stroke="#c8c0b0" stroke-width="0.42" opacity="0.47"/><line x1="510.2" y1="206.9" x2="505.7" y2="227.0" stroke="#c8c0b0" stroke-width="0.99" opacity="0.41"/><line x1="1120.6" y1="1007.5" x2="1113.9" y2="1027.0" stroke="#c8c0b0" stroke-width="0.81" opacity="0.46"/><line x1="88.4" y1="777.3" x2="99.2" y2="791.8" stroke="#c8c0b0" stroke-width="0.58" opacity="0.34"/><line x1="214.8" y1="957.5" x2="206.3" y2="958.9" stroke="#c8c0b0" stroke-width="0.38" opacity="0.44"/><line x1="743.0" y1="357.1" x2="757.3" y2="362.8" stroke="#c8c0b0" stroke-width="0.94" opacity="0.25"/><line x1="179.3" y1="28.8" x2="180.9" y2="45.1" stroke="#c8c0b0" stroke-width="0.99" opacity="0.38"/><line x1="145.5" y1="447.8" x2="133.4" y2="454.6" stroke="#c8c0b0" stroke-width="0.92" opacity="0.44"/><line x1="1142.9" y1="1082.9" x2="1154.1" y2="1100.9" stroke="#c8c0b0" stroke-width="0.45" opacity="0.33"/><line x1="131.9" y1="1123.4" x2="151.1" y2="1134.0" stroke="#c8c0b0" stroke-width="0.43" opacity="0.40"/><line x1="1030.1" y1="440.7" x2="1017.2" y2="447.9" stroke="#c8c0b0" stroke-width="0.46" opacity="0.49"/><line x1="705.1" y1="559.1" x2="706.8" y2="563.2" stroke="#c8c0b0" stroke-width="0.40" opacity="0.43"/><line x1="376.3" y1="749.1" x2="367.9" y2="769.0" stroke="#c8c0b0" stroke-width="0.53" opacity="0.42"/><line x1="626.3" y1="953.8" x2="633.7" y2="954.9" stroke="#c8c0b0" stroke-width="0.57" opacity="0.43"/><line x1="154.6" y1="133.4" x2="145.1" y2="138.0" stroke="#c8c0b0" stroke-width="0.51" opacity="0.40"/><line x1="771.9" y1="94.8" x2="783.2" y2="100.0" stroke="#c8c0b0" stroke-width="0.96" opacity="0.21"/><line x1="847.7" y1="607.5" x2="854.4" y2="609.4" stroke="#c8c0b0" stroke-width="0.32" opacity="0.37"/><line x1="276.6" y1="1029.9" x2="266.1" y2="1046.1" stroke="#c8c0b0" stroke-width="0.31" opacity="0.37"/><line x1="386.0" y1="226.7" x2="387.2" y2="238.5" stroke="#c8c0b0" stroke-width="0.98" opacity="0.16"/><line x1="142.4" y1="799.7" x2="146.8" y2="806.3" stroke="#c8c0b0" stroke-width="0.46" opacity="0.23"/><line x1="759.5" y1="1153.5" x2="754.4" y2="1158.1" stroke="#c8c0b0" stroke-width="0.46" opacity="0.29"/><line x1="946.3" y1="87.8" x2="952.2" y2="105.1" stroke="#c8c0b0" stroke-width="0.36" opacity="0.36"/><line x1="73.5" y1="943.1" x2="66.8" y2="944.7" stroke="#c8c0b0" stroke-width="0.32" opacity="0.32"/><line x1="1077.0" y1="475.3" x2="1071.4" y2="479.4" stroke="#c8c0b0" stroke-width="0.85" opacity="0.17"/><line x1="554.4" y1="840.2" x2="562.0" y2="854.9" stroke="#c8c0b0" stroke-width="0.73" opacity="0.33"/><line x1="869.6" y1="320.5" x2="873.7" y2="326.3" stroke="#c8c0b0" stroke-width="0.37" opacity="0.18"/><line x1="1096.3" y1="1123.2" x2="1099.6" y2="1129.8" stroke="#c8c0b0" stroke-width="0.60" opacity="0.30"/><line x1="336.7" y1="798.1" x2="335.4" y2="805.4" stroke="#c8c0b0" stroke-width="0.61" opacity="0.48"/><line x1="1053.0" y1="1068.7" x2="1063.4" y2="1079.3" stroke="#c8c0b0" stroke-width="0.64" opacity="0.50"/><line x1="438.8" y1="623.7" x2="419.8" y2="626.6" stroke="#c8c0b0" stroke-width="0.69" opacity="0.37"/><line x1="1075.8" y1="295.3" x2="1056.5" y2="297.0" stroke="#c8c0b0" stroke-width="0.65" opacity="0.41"/></g>
  <g id="layer-glow">
      <radialGradient id="glow-grad" cx="50%" cy="42%" r="60%">
        <stop offset="0%" stop-color="hsl(38 84% 52%)" stop-opacity="0.584"/>
        <stop offset="55%" stop-color="hsl(38 84% 52%)" stop-opacity="0.204"/>
        <stop offset="100%" stop-color="#000000" stop-opacity="0"/>
      </radialGradient>
      <ellipse cx="600.0" cy="504.0" rx="565.0" ry="423.8" fill="url(#glow-grad)"/>
    </g>
  <g id="layer-color-wash"><linearGradient id="wash-grad" x1="0" y1="1" x2="1" y2="0">
          <stop offset="0%" stop-color="hsl(38 84% 52%)" stop-opacity="0.547"/>
          <stop offset="50%" stop-color="hsl(18 82% 46%)" stop-opacity="0.465"/>
          <stop offset="100%" stop-color="hsl(168 55% 38%)" stop-opacity="0.328"/>
        </linearGradient><rect width="1200" height="1200" fill="url(#wash-grad)"/></g>
  <g id="layer-watercolor-blooms"><ellipse cx="936.0" cy="740.3" rx="43.4" ry="53.6" fill="hsl(38 84% 52%)" opacity="0.145" filter="url(#watercolor-blur)"/><ellipse cx="736.6" cy="1002.5" rx="116.0" ry="103.7" fill="hsl(18 82% 46%)" opacity="0.196" filter="url(#watercolor-blur)"/><ellipse cx="718.2" cy="1030.6" rx="55.0" ry="96.4" fill="hsl(168 55% 38%)" opacity="0.124" filter="url(#watercolor-blur)"/><ellipse cx="812.6" cy="378.0" rx="83.0" ry="86.1" fill="hsl(48 60% 28%)" opacity="0.162" filter="url(#watercolor-blur)"/><ellipse cx="571.3" cy="689.7" rx="75.5" ry="49.8" fill="hsl(38 84% 52%)" opacity="0.128" filter="url(#watercolor-blur)"/><ellipse cx="714.9" cy="366.9" rx="87.5" ry="57.5" fill="hsl(18 82% 46%)" opacity="0.152" filter="url(#watercolor-blur)"/></g>
  <g id="layer-primary-brush"><path d="M 114.7 91.0 C 253.5 82.5, 763.8 14.6, 1090.3 91.0" fill="none" stroke="hsl(38 84% 52%)" stroke-width="23.56" stroke-linecap="round" opacity="0.591"/><path d="M 84.5 141.2 C 367.3 144.9, 765.5 160.5, 1094.9 141.2" fill="none" stroke="hsl(18 82% 46%)" stroke-width="18.87" stroke-linecap="round" opacity="0.591"/><path d="M 61.1 153.2 C 462.5 201.4, 723.7 203.1, 1088.3 153.2" fill="none" stroke="hsl(168 55% 38%)" stroke-width="19.31" stroke-linecap="round" opacity="0.591"/><path d="M 72.6 225.5 C 333.6 310.7, 754.0 170.0, 1107.2 225.5" fill="none" stroke="hsl(48 60% 28%)" stroke-width="17.73" stroke-linecap="round" opacity="0.591"/><path d="M 111.0 228.2 C 374.5 294.3, 682.9 174.1, 1091.1 228.2" fill="none" stroke="hsl(38 84% 52%)" stroke-width="22.90" stroke-linecap="round" opacity="0.591"/><path d="M 110.8 267.1 C 255.5 334.8, 680.1 173.4, 1111.8 267.1" fill="none" stroke="hsl(18 82% 46%)" stroke-width="24.51" stroke-linecap="round" opacity="0.591"/><path d="M 110.8 298.4 C 247.7 230.1, 781.4 371.4, 1074.9 298.4" fill="none" stroke="hsl(168 55% 38%)" stroke-width="24.08" stroke-linecap="round" opacity="0.591"/><path d="M 62.6 342.2 C 264.7 264.6, 773.7 284.7, 1095.4 342.2" fill="none" stroke="hsl(48 60% 28%)" stroke-width="23.41" stroke-linecap="round" opacity="0.591"/><path d="M 71.9 391.9 C 402.8 318.9, 784.3 483.4, 1101.6 391.9" fill="none" stroke="hsl(38 84% 52%)" stroke-width="15.82" stroke-linecap="round" opacity="0.591"/><path d="M 78.0 408.3 C 374.0 456.5, 832.9 368.3, 1067.7 408.3" fill="none" stroke="hsl(18 82% 46%)" stroke-width="24.22" stroke-linecap="round" opacity="0.591"/><path d="M 96.3 460.9 C 477.7 509.5, 703.1 374.1, 1086.4 460.9" fill="none" stroke="hsl(168 55% 38%)" stroke-width="14.84" stroke-linecap="round" opacity="0.591"/><path d="M 60.5 491.2 C 427.3 449.4, 757.8 495.3, 1082.5 491.2" fill="none" stroke="hsl(48 60% 28%)" stroke-width="12.66" stroke-linecap="round" opacity="0.591"/><path d="M 121.9 544.8 C 254.2 518.7, 834.7 502.8, 1068.1 544.8" fill="none" stroke="hsl(38 84% 52%)" stroke-width="20.85" stroke-linecap="round" opacity="0.591"/><path d="M 135.6 556.0 C 384.0 541.8, 717.8 552.0, 1071.7 556.0" fill="none" stroke="hsl(18 82% 46%)" stroke-width="11.70" stroke-linecap="round" opacity="0.591"/><path d="M 87.9 605.5 C 295.3 619.7, 816.0 662.6, 1101.9 605.5" fill="none" stroke="hsl(168 55% 38%)" stroke-width="18.75" stroke-linecap="round" opacity="0.591"/><path d="M 116.9 628.3 C 369.9 586.3, 697.0 720.2, 1066.4 628.3" fill="none" stroke="hsl(48 60% 28%)" stroke-width="21.73" stroke-linecap="round" opacity="0.591"/><path d="M 70.6 664.7 C 367.1 666.8, 774.9 753.7, 1134.2 664.7" fill="none" stroke="hsl(38 84% 52%)" stroke-width="20.24" stroke-linecap="round" opacity="0.591"/><path d="M 81.0 687.8 C 394.0 650.4, 788.8 745.7, 1113.9 687.8" fill="none" stroke="hsl(18 82% 46%)" stroke-width="21.93" stroke-linecap="round" opacity="0.591"/><path d="M 91.0 746.6 C 375.2 764.6, 722.3 661.2, 1101.2 746.6" fill="none" stroke="hsl(168 55% 38%)" stroke-width="24.93" stroke-linecap="round" opacity="0.591"/><path d="M 139.2 791.6 C 450.2 811.9, 714.0 878.7, 1075.6 791.6" fill="none" stroke="hsl(48 60% 28%)" stroke-width="23.23" stroke-linecap="round" opacity="0.591"/><path d="M 112.2 794.7 C 361.7 808.5, 714.0 711.9, 1127.6 794.7" fill="none" stroke="hsl(38 84% 52%)" stroke-width="13.95" stroke-linecap="round" opacity="0.591"/><path d="M 106.1 866.3 C 373.5 783.6, 726.9 953.9, 1099.2 866.3" fill="none" stroke="hsl(18 82% 46%)" stroke-width="11.62" stroke-linecap="round" opacity="0.591"/><path d="M 138.8 866.5 C 340.7 792.4, 753.5 789.3, 1072.7 866.5" fill="none" stroke="hsl(168 55% 38%)" stroke-width="21.12" stroke-linecap="round" opacity="0.591"/><path d="M 68.5 902.5 C 290.3 971.3, 730.5 980.1, 1061.4 902.5" fill="none" stroke="hsl(48 60% 28%)" stroke-width="20.80" stroke-linecap="round" opacity="0.591"/><path d="M 61.9 961.7 C 277.9 963.9, 837.5 1009.3, 1134.4 961.7" fill="none" stroke="hsl(38 84% 52%)" stroke-width="11.92" stroke-linecap="round" opacity="0.591"/><path d="M 136.7 1000.0 C 274.3 1094.3, 708.9 1021.7, 1123.1 1000.0" fill="none" stroke="hsl(18 82% 46%)" stroke-width="11.07" stroke-linecap="round" opacity="0.591"/><path d="M 98.7 1027.3 C 386.5 1070.1, 710.9 1113.8, 1109.2 1027.3" fill="none" stroke="hsl(168 55% 38%)" stroke-width="24.32" stroke-linecap="round" opacity="0.591"/><path d="M 120.5 1073.7 C 365.7 1086.7, 721.0 1146.3, 1075.8 1073.7" fill="none" stroke="hsl(48 60% 28%)" stroke-width="21.21" stroke-linecap="round" opacity="0.591"/></g>
  <g id="layer-motion-ribbons"><path d="M 40 80.0 C 419.2 82.0, 812.7 -65.2, 1160 80.0" fill="none" stroke="hsl(18 82% 46%)" stroke-width="7.05" stroke-linecap="round" opacity="0.561"/><path d="M 40 154.3 C 335.3 287.4, 789.3 23.8, 1160 154.3" fill="none" stroke="hsl(168 55% 38%)" stroke-width="7.05" stroke-linecap="round" opacity="0.561"/><path d="M 40 228.6 C 387.9 398.6, 823.8 175.0, 1160 228.6" fill="none" stroke="hsl(48 60% 28%)" stroke-width="7.05" stroke-linecap="round" opacity="0.561"/><path d="M 40 302.9 C 345.9 402.5, 839.9 349.5, 1160 302.9" fill="none" stroke="hsl(38 84% 52%)" stroke-width="7.05" stroke-linecap="round" opacity="0.561"/><path d="M 40 377.1 C 354.2 357.7, 838.8 492.3, 1160 377.1" fill="none" stroke="hsl(18 82% 46%)" stroke-width="7.05" stroke-linecap="round" opacity="0.561"/><path d="M 40 451.4 C 388.7 335.7, 894.8 581.4, 1160 451.4" fill="none" stroke="hsl(168 55% 38%)" stroke-width="7.05" stroke-linecap="round" opacity="0.561"/><path d="M 40 525.7 C 403.1 352.1, 862.4 660.0, 1160 525.7" fill="none" stroke="hsl(48 60% 28%)" stroke-width="7.05" stroke-linecap="round" opacity="0.561"/><path d="M 40 600.0 C 328.4 498.9, 893.2 664.9, 1160 600.0" fill="none" stroke="hsl(38 84% 52%)" stroke-width="7.05" stroke-linecap="round" opacity="0.561"/><path d="M 40 674.3 C 401.9 676.4, 829.0 679.3, 1160 674.3" fill="none" stroke="hsl(18 82% 46%)" stroke-width="7.05" stroke-linecap="round" opacity="0.561"/><path d="M 40 748.6 C 374.6 896.8, 791.3 643.1, 1160 748.6" fill="none" stroke="hsl(168 55% 38%)" stroke-width="7.05" stroke-linecap="round" opacity="0.561"/><path d="M 40 822.9 C 333.9 982.5, 847.5 692.4, 1160 822.9" fill="none" stroke="hsl(48 60% 28%)" stroke-width="7.05" stroke-linecap="round" opacity="0.561"/><path d="M 40 897.1 C 330.3 976.6, 897.2 780.2, 1160 897.1" fill="none" stroke="hsl(38 84% 52%)" stroke-width="7.05" stroke-linecap="round" opacity="0.561"/><path d="M 40 971.4 C 401.9 946.3, 805.6 880.1, 1160 971.4" fill="none" stroke="hsl(18 82% 46%)" stroke-width="7.05" stroke-linecap="round" opacity="0.561"/><path d="M 40 1045.7 C 382.4 886.4, 847.7 1057.9, 1160 1045.7" fill="none" stroke="hsl(168 55% 38%)" stroke-width="7.05" stroke-linecap="round" opacity="0.561"/></g>
  <g id="layer-splatter"><circle cx="124.9" cy="802.2" r="2.04" fill="hsl(38 84% 52%)" opacity="0.228"/><circle cx="863.5" cy="411.0" r="3.14" fill="hsl(18 82% 46%)" opacity="0.228"/><circle cx="790.2" cy="1048.5" r="3.73" fill="hsl(38 84% 52%)" opacity="0.228"/><circle cx="1041.5" cy="797.6" r="2.24" fill="hsl(18 82% 46%)" opacity="0.228"/><circle cx="264.0" cy="608.1" r="2.12" fill="hsl(38 84% 52%)" opacity="0.228"/><circle cx="109.4" cy="586.4" r="1.77" fill="hsl(18 82% 46%)" opacity="0.228"/><circle cx="1097.9" cy="658.7" r="3.03" fill="hsl(38 84% 52%)" opacity="0.228"/><circle cx="902.0" cy="1003.3" r="3.76" fill="hsl(18 82% 46%)" opacity="0.228"/><circle cx="624.3" cy="757.5" r="1.38" fill="hsl(38 84% 52%)" opacity="0.228"/><circle cx="233.3" cy="714.9" r="1.38" fill="hsl(18 82% 46%)" opacity="0.228"/><circle cx="223.3" cy="1063.5" r="1.85" fill="hsl(38 84% 52%)" opacity="0.228"/><circle cx="1085.8" cy="357.9" r="1.50" fill="hsl(18 82% 46%)" opacity="0.228"/><circle cx="22.1" cy="570.9" r="1.75" fill="hsl(38 84% 52%)" opacity="0.228"/><circle cx="528.6" cy="707.9" r="2.03" fill="hsl(18 82% 46%)" opacity="0.228"/></g>
  <g id="layer-fine-detail"><polygon points="143.8,344.6 130.0,348.9 132.9,330.0" fill="hsl(168 55% 38%)" opacity="0.216"/></g>
  <g id="layer-signature-highlights"><circle cx="666.7" cy="638.5" r="22" fill="hsl(38 84% 52%)" opacity="0.55" filter="url(#highlight-glow)"/><circle cx="577.4" cy="706.1" r="22" fill="hsl(38 84% 52%)" opacity="0.55" filter="url(#highlight-glow)"/><circle cx="460.8" cy="614.6" r="22" fill="hsl(38 84% 52%)" opacity="0.55" filter="url(#highlight-glow)"/><circle cx="530.2" cy="443.3" r="22" fill="hsl(38 84% 52%)" opacity="0.55" filter="url(#highlight-glow)"/><circle cx="750.9" cy="464.2" r="22" fill="hsl(38 84% 52%)" opacity="0.55" filter="url(#highlight-glow)"/></g>
</svg>