<svg xmlns="http://www.w3.org/2000/svg" viewBox="0 0 1200 1200" width="1200" height="1200">
  <defs>
    <filter id="v2-atmo-blur" x="-50%" y="-50%" width="200%" height="200%">
    <feGaussianBlur stdDeviation="28"/>
  </filter>
    <filter id="v2-light-blur" x="-60%" y="-60%" width="220%" height="220%">
    <feGaussianBlur stdDeviation="18"/>
  </filter>
    <filter id="v2-sig-blur" x="-80%" y="-80%" width="260%" height="260%">
    <feGaussianBlur stdDeviation="3"/>
  </filter>
  </defs>
  <g id="v2-background">
    <rect width="1200" height="1200" fill="#000000"/>
    <rect width="1200" height="1200" fill="hsl(248 48% 8%)" opacity="0.207"/>
    <ellipse cx="134.0" cy="1084.3" rx="249.4" ry="229.6" fill="hsl(200 60% 28%)" opacity="0.280" filter="url(#v2-atmo-blur)"/>
<ellipse cx="289.4" cy="986.2" rx="100.2" ry="74.6" fill="hsl(200 60% 28%)" opacity="0.237" filter="url(#v2-atmo-blur)"/>
<ellipse cx="804.9" cy="960.7" rx="172.4" ry="171.4" fill="hsl(200 60% 28%)" opacity="0.247" filter="url(#v2-atmo-blur)"/>
<ellipse cx="639.5" cy="815.5" rx="125.7" ry="184.7" fill="hsl(200 60% 28%)" opacity="0.291" filter="url(#v2-atmo-blur)"/>
<ellipse cx="117.7" cy="5.5" rx="184.0" ry="169.9" fill="hsl(200 60% 28%)" opacity="0.246" filter="url(#v2-atmo-blur)"/>
<ellipse cx="822.7" cy="390.0" rx="196.6" ry="135.7" fill="hsl(200 60% 28%)" opacity="0.255" filter="url(#v2-atmo-blur)"/>
<ellipse cx="245.8" cy="1003.7" rx="96.4" ry="187.0" fill="hsl(200 60% 28%)" opacity="0.256" filter="url(#v2-atmo-blur)"/>
<ellipse cx="151.2" cy="676.7" rx="230.9" ry="130.7" fill="hsl(265 42% 22%)" opacity="0.254" filter="url(#v2-atmo-blur)"/>
<ellipse cx="148.8" cy="1123.1" rx="157.1" ry="166.8" fill="hsl(200 60% 28%)" opacity="0.282" filter="url(#v2-atmo-blur)"/>
<ellipse cx="82.1" cy="338.7" rx="70.5" ry="200.9" fill="hsl(265 42% 22%)" opacity="0.257" filter="url(#v2-atmo-blur)"/>
<ellipse cx="745.0" cy="579.9" rx="72.0" ry="152.2" fill="hsl(200 60% 28%)" opacity="0.253" filter="url(#v2-atmo-blur)"/>
<ellipse cx="703.5" cy="743.7" rx="245.9" ry="210.4" fill="hsl(200 60% 28%)" opacity="0.272" filter="url(#v2-atmo-blur)"/>
<ellipse cx="852.0" cy="803.7" rx="189.4" ry="254.0" fill="hsl(200 60% 28%)" opacity="0.257" filter="url(#v2-atmo-blur)"/>
<ellipse cx="149.8" cy="34.3" rx="205.6" ry="173.4" fill="hsl(265 42% 22%)" opacity="0.272" filter="url(#v2-atmo-blur)"/>
<ellipse cx="1107.0" cy="733.8" rx="171.1" ry="169.8" fill="hsl(200 60% 28%)" opacity="0.245" filter="url(#v2-atmo-blur)"/>
<ellipse cx="124.5" cy="1026.5" rx="142.5" ry="100.7" fill="hsl(265 42% 22%)" opacity="0.285" filter="url(#v2-atmo-blur)"/>
<ellipse cx="552.7" cy="951.2" rx="335.0" ry="194.9" fill="hsl(265 42% 22%)" opacity="0.280" filter="url(#v2-atmo-blur)"/>
<ellipse cx="951.0" cy="154.7" rx="268.4" ry="196.3" fill="hsl(200 60% 28%)" opacity="0.254" filter="url(#v2-atmo-blur)"/>
<ellipse cx="898.6" cy="1162.2" rx="113.2" ry="82.6" fill="hsl(265 42% 22%)" opacity="0.266" filter="url(#v2-atmo-blur)"/>
<ellipse cx="269.0" cy="705.9" rx="234.6" ry="268.2" fill="hsl(265 42% 22%)" opacity="0.247" filter="url(#v2-atmo-blur)"/>
<ellipse cx="1198.6" cy="716.9" rx="214.4" ry="241.3" fill="hsl(200 60% 28%)" opacity="0.274" filter="url(#v2-atmo-blur)"/>
<ellipse cx="836.2" cy="377.0" rx="86.3" ry="171.7" fill="hsl(265 42% 22%)" opacity="0.262" filter="url(#v2-atmo-blur)"/>
<ellipse cx="1174.5" cy="1108.0" rx="183.5" ry="161.3" fill="hsl(200 60% 28%)" opacity="0.260" filter="url(#v2-atmo-blur)"/>
<ellipse cx="649.0" cy="272.3" rx="224.7" ry="220.3" fill="hsl(200 60% 28%)" opacity="0.233" filter="url(#v2-atmo-blur)"/>
<ellipse cx="812.7" cy="21.7" rx="278.0" ry="255.2" fill="hsl(265 42% 22%)" opacity="0.231" filter="url(#v2-atmo-blur)"/>
<ellipse cx="410.3" cy="428.1" rx="112.6" ry="260.8" fill="hsl(265 42% 22%)" opacity="0.273" filter="url(#v2-atmo-blur)"/>
<ellipse cx="419.2" cy="684.8" rx="72.7" ry="254.1" fill="hsl(200 60% 28%)" opacity="0.283" filter="url(#v2-atmo-blur)"/>
<ellipse cx="196.5" cy="1016.4" rx="115.1" ry="218.3" fill="hsl(200 60% 28%)" opacity="0.263" filter="url(#v2-atmo-blur)"/>
    <radialGradient id="v2-void-mask" cx="0.360" cy="0.462" r="50%">
      <stop offset="0%" stop-color="#000" stop-opacity="0.386"/>
      <stop offset="0.067" stop-color="#000" stop-opacity="0"/>
      <stop offset="100%" stop-color="#000" stop-opacity="0"/>
    </radialGradient>
    <rect width="1200" height="1200" fill="url(#v2-void-mask)"/>
  </g>
<g id="v2-rhythm"><path d="M 300.0 105.8 Q 395.3 160.2 514.2 211.3" fill="none" stroke="hsl(210 55% 38%)" stroke-width="3.91" stroke-linecap="round" opacity="0.299"/>
<path d="M 450.0 377.2 Q 489.7 301.5 615.5 320.1" fill="none" stroke="hsl(280 35% 45%)" stroke-width="4.62" stroke-linecap="round" opacity="0.299"/>
<path d="M 600.0 577.8 Q 625.9 560.4 711.2 515.9" fill="none" stroke="hsl(265 42% 22%)" stroke-width="3.71" stroke-linecap="round" opacity="0.299"/>
<path d="M 750.0 893.4 Q 783.5 968.6 853.3 995.1" fill="none" stroke="hsl(210 55% 38%)" stroke-width="2.60" stroke-linecap="round" opacity="0.299"/>
<path d="M 900.0 1100.1 Q 929.5 1135.0 1053.6 1131.4" fill="none" stroke="hsl(280 35% 45%)" stroke-width="3.18" stroke-linecap="round" opacity="0.299"/>
<path d="M 336.3 135.3 Q 407.0 20.7 473.3 -55.6" fill="none" stroke="hsl(265 42% 22%)" stroke-width="2.68" stroke-linecap="round" opacity="0.299"/>
<path d="M 464.9 425.5 Q 548.4 375.0 653.9 373.2" fill="none" stroke="hsl(210 55% 38%)" stroke-width="4.52" stroke-linecap="round" opacity="0.299"/>
<path d="M 608.3 628.5 Q 744.4 571.0 893.9 570.3" fill="none" stroke="hsl(280 35% 45%)" stroke-width="6.04" stroke-linecap="round" opacity="0.299"/>
<path d="M 711.2 925.6 Q 711.2 990.6 809.7 1057.3" fill="none" stroke="hsl(265 42% 22%)" stroke-width="3.51" stroke-linecap="round" opacity="0.299"/>
<path d="M 888.6 1158.0 Q 1001.7 1156.9 1103.7 1210.2" fill="none" stroke="hsl(210 55% 38%)" stroke-width="2.98" stroke-linecap="round" opacity="0.299"/>
<path d="M 300.2 199.9 Q 400.7 173.7 510.6 188.1" fill="none" stroke="hsl(280 35% 45%)" stroke-width="3.30" stroke-linecap="round" opacity="0.299"/>
<path d="M 518.4 468.3 Q 562.7 412.5 639.8 375.9" fill="none" stroke="hsl(265 42% 22%)" stroke-width="2.93" stroke-linecap="round" opacity="0.299"/>
<path d="M 635.9 684.3 Q 682.4 604.4 824.4 618.8" fill="none" stroke="hsl(210 55% 38%)" stroke-width="3.51" stroke-linecap="round" opacity="0.299"/>
<path d="M 810.3 961.7 Q 927.8 903.8 949.6 841.6" fill="none" stroke="hsl(280 35% 45%)" stroke-width="4.60" stroke-linecap="round" opacity="0.299"/>
<path d="M 855.6 1191.4 Q 890.9 1236.1 1018.0 1295.6" fill="none" stroke="hsl(265 42% 22%)" stroke-width="3.28" stroke-linecap="round" opacity="0.299"/>
<path d="M 307.4 279.0 Q 424.5 264.9 563.6 268.4" fill="none" stroke="hsl(210 55% 38%)" stroke-width="2.75" stroke-linecap="round" opacity="0.299"/>
<path d="M 511.5 554.9 Q 617.1 533.7 678.3 498.2" fill="none" stroke="hsl(280 35% 45%)" stroke-width="3.60" stroke-linecap="round" opacity="0.299"/>
<path d="M 510.0 673.4 Q 554.4 716.2 674.1 827.9" fill="none" stroke="hsl(265 42% 22%)" stroke-width="5.27" stroke-linecap="round" opacity="0.299"/>
<path d="M 736.6 1068.7 Q 859.1 1104.2 1009.5 1087.1" fill="none" stroke="hsl(210 55% 38%)" stroke-width="5.57" stroke-linecap="round" opacity="0.299"/>
<path d="M 849.8 1230.3 Q 928.1 1245.4 1091.1 1325.9" fill="none" stroke="hsl(280 35% 45%)" stroke-width="3.27" stroke-linecap="round" opacity="0.299"/>
<path d="M 256.3 302.0 Q 361.1 318.1 496.2 338.2" fill="none" stroke="hsl(265 42% 22%)" stroke-width="3.95" stroke-linecap="round" opacity="0.299"/>
<path d="M 505.7 559.6 Q 556.2 489.2 682.0 510.4" fill="none" stroke="hsl(210 55% 38%)" stroke-width="2.60" stroke-linecap="round" opacity="0.299"/>
<path d="M 638.1 751.4 Q 711.8 694.8 846.9 695.3" fill="none" stroke="hsl(280 35% 45%)" stroke-width="4.58" stroke-linecap="round" opacity="0.299"/>
<path d="M 906.8 1014.6 Q 1024.7 928.1 1058.2 812.7" fill="none" stroke="hsl(265 42% 22%)" stroke-width="5.38" stroke-linecap="round" opacity="0.299"/>
<path d="M 933.3 1276.2 Q 1026.5 1285.8 1178.8 1219.9" fill="none" stroke="hsl(210 55% 38%)" stroke-width="3.62" stroke-linecap="round" opacity="0.299"/>
<path d="M 356.4 398.8 Q 410.0 376.2 559.5 352.6" fill="none" stroke="hsl(280 35% 45%)" stroke-width="5.32" stroke-linecap="round" opacity="0.299"/>
<path d="M 608.1 559.1 Q 666.6 521.1 714.0 452.4" fill="none" stroke="hsl(265 42% 22%)" stroke-width="3.42" stroke-linecap="round" opacity="0.299"/></g>
<g id="v2-particles"><circle cx="622.3" cy="565.5" r="5.31" fill="hsl(200 60% 28%)" opacity="0.524"/>
<circle cx="411.6" cy="362.0" r="3.69" fill="hsl(200 60% 28%)" opacity="0.586"/>
<circle cx="612.1" cy="620.6" r="2.65" fill="hsl(200 60% 28%)" opacity="0.458"/>
<circle cx="366.6" cy="235.0" r="4.54" fill="hsl(200 60% 28%)" opacity="0.415"/>
<circle cx="269.5" cy="361.1" r="5.42" fill="hsl(200 60% 28%)" opacity="0.408"/>
<circle cx="567.7" cy="521.0" r="3.97" fill="hsl(200 60% 28%)" opacity="0.363"/>
<circle cx="345.2" cy="258.9" r="3.51" fill="hsl(280 35% 45%)" opacity="0.266"/>
<circle cx="462.2" cy="404.4" r="4.40" fill="hsl(200 60% 28%)" opacity="0.244"/>
<circle cx="569.0" cy="471.1" r="2.30" fill="hsl(200 60% 28%)" opacity="0.327"/>
<circle cx="434.0" cy="555.5" r="1.48" fill="hsl(280 35% 45%)" opacity="0.593"/>
<circle cx="332.7" cy="449.8" r="1.85" fill="hsl(280 35% 45%)" opacity="0.553"/>
<circle cx="511.7" cy="376.5" r="2.07" fill="hsl(280 35% 45%)" opacity="0.217"/>
<circle cx="591.2" cy="553.5" r="1.85" fill="hsl(200 60% 28%)" opacity="0.419"/>
<circle cx="502.5" cy="423.6" r="2.31" fill="hsl(280 35% 45%)" opacity="0.482"/>
<circle cx="695.6" cy="623.3" r="4.24" fill="hsl(280 35% 45%)" opacity="0.240"/>
<circle cx="569.8" cy="458.2" r="3.63" fill="hsl(200 60% 28%)" opacity="0.407"/>
<circle cx="333.3" cy="340.4" r="1.65" fill="hsl(280 35% 45%)" opacity="0.364"/></g>
<g id="v2-lighting">
    <radialGradient id="v2-halo" cx="50%" cy="50%" r="50%">
      <stop offset="0%" stop-color="hsl(280 35% 45%)" stop-opacity="0.352"/>
      <stop offset="55%" stop-color="hsl(210 55% 38%)" stop-opacity="0.123"/>
      <stop offset="100%" stop-color="#000" stop-opacity="0"/>
    </radialGradient>
    <ellipse cx="808.6" cy="662.8" rx="388.0" ry="318.1" fill="url(#v2-halo)"/>
    <line x1="808.6" y1="662.8" x2="176.6" y2="852.9" stroke="hsl(280 35% 45%)" stroke-width="107.2" stroke-linecap="round" opacity="0.143" filter="url(#v2-light-blur)"/>
<line x1="808.6" y1="662.8" x2="1437.8" y2="463.5" stroke="hsl(280 35% 45%)" stroke-width="107.2" stroke-linecap="round" opacity="0.166" filter="url(#v2-light-blur)"/>
  </g>
<g id="v2-composition">
    <path d="M 40 105.8 C 360.0 374.8, 840.0 -163.2, 1160 105.8" fill="none" stroke="hsl(280 35% 45%)" stroke-width="2.36" stroke-linecap="round" opacity="0.72"/>
<path d="M 40 377.2 C 360.0 531.6, 840.0 222.8, 1160 377.2" fill="none" stroke="hsl(280 35% 45%)" stroke-width="3.29" stroke-linecap="round" opacity="0.72"/>
<path d="M 1160 577.8 C 360.0 336.3, 840.0 819.3, 40 577.8" fill="none" stroke="hsl(280 35% 45%)" stroke-width="2.23" stroke-linecap="round" opacity="0.72"/>
<path d="M 1160 893.4 C 360.0 677.5, 840.0 1109.4, 40 893.4" fill="none" stroke="hsl(280 35% 45%)" stroke-width="1.92" stroke-linecap="round" opacity="0.72"/>
<path d="M 1160 1100.1 C 360.0 1430.2, 840.0 769.9, 40 1100.1" fill="none" stroke="hsl(280 35% 45%)" stroke-width="3.48" stroke-linecap="round" opacity="0.72"/>
    <circle cx="808.6" cy="662.8" r="6" fill="hsl(210 55% 38%)" opacity="0.85"/>
  </g>
<g id="v2-signature"><circle cx="913.4" cy="700.7" r="15.6" fill="hsl(150 58% 62%)" opacity="0.778" filter="url(#v2-sig-blur)"/>
<circle cx="832.5" cy="795.8" r="14.4" fill="hsl(150 58% 62%)" opacity="0.565" filter="url(#v2-sig-blur)"/>
<circle cx="705.2" cy="679.1" r="7.7" fill="hsl(150 58% 62%)" opacity="0.474" filter="url(#v2-sig-blur)"/>
<circle cx="728.8" cy="583.5" r="9.4" fill="hsl(150 58% 62%)" opacity="0.549" filter="url(#v2-sig-blur)"/>
<circle cx="857.6" cy="609.3" r="11.9" fill="hsl(150 58% 62%)" opacity="0.368" filter="url(#v2-sig-blur)"/>
<circle cx="808.6" cy="662.8" r="32.6" fill="none" stroke="hsl(150 58% 62%)" stroke-width="1.5" opacity="0.5"/></g>
</svg>