<svg xmlns="http://www.w3.org/2000/svg" viewBox="0 0 1200 1200" width="1200" height="1200">
  <defs>
    <filter id="dna-bleed" x="-30%" y="-30%" width="160%" height="160%">
      <feGaussianBlur stdDeviation="4.8"/>
    </filter>
  </defs>
  <rect width="1200" height="1200" fill="#000000"/>
  <rect width="1200" height="1200" fill="hsl(210 18% 10%)" opacity="0.05"/>
  <g id="flow-strokes"><path d="M 86.3 120.9 C 343.5 120.9, 736.9 -47.5, 1116.2 122.9" fill="none" stroke="hsl(248 46% 17%)" stroke-width="18.13" stroke-linecap="round" opacity="0.68" filter="url(#dna-bleed)"/>
<path d="M 95.7 271.7 C 444.4 399.4, 764.3 167.0, 1087.3 269.0" fill="none" stroke="hsl(268 42% 29%)" stroke-width="10.12" stroke-linecap="round" opacity="0.68" filter="url(#dna-bleed)"/>
<path d="M 104.5 405.0 C 398.0 600.2, 791.9 443.3, 1115.1 412.0" fill="none" stroke="hsl(220 28% 22%)" stroke-width="15.95" stroke-linecap="round" opacity="0.68" filter="url(#dna-bleed)"/>
<path d="M 98.6 567.5 C 342.8 738.5, 832.5 719.8, 1108.1 567.8" fill="none" stroke="hsl(210 18% 10%)" stroke-width="17.63" stroke-linecap="round" opacity="0.68" filter="url(#dna-bleed)"/>
<path d="M 110.0 699.0 C 399.0 765.4, 732.9 850.1, 1107.7 697.0" fill="none" stroke="hsl(248 46% 17%)" stroke-width="17.36" stroke-linecap="round" opacity="0.68" filter="url(#dna-bleed)"/>
<path d="M 105.4 845.1 C 304.7 775.6, 728.3 880.6, 1115.8 843.3" fill="none" stroke="hsl(268 42% 29%)" stroke-width="12.23" stroke-linecap="round" opacity="0.68" filter="url(#dna-bleed)"/>
<path d="M 80.8 979.1 C 324.9 806.4, 709.0 872.2, 1101.8 978.0" fill="none" stroke="hsl(220 28% 22%)" stroke-width="10.23" stroke-linecap="round" opacity="0.68" filter="url(#dna-bleed)"/>
<path d="M 90.1 1120.5 C 437.3 925.8, 731.2 952.1, 1103.5 1114.6" fill="none" stroke="hsl(210 18% 10%)" stroke-width="11.05" stroke-linecap="round" opacity="0.68" filter="url(#dna-bleed)"/>
<path d="M 90.1 1272.1 C 418.7 1147.0, 752.4 1169.6, 1080.6 1268.4" fill="none" stroke="hsl(248 46% 17%)" stroke-width="10.82" stroke-linecap="round" opacity="0.68" filter="url(#dna-bleed)"/>
<path d="M 107.2 1401.2 C 352.8 1404.5, 783.5 1442.2, 1096.2 1400.1" fill="none" stroke="hsl(268 42% 29%)" stroke-width="16.51" stroke-linecap="round" opacity="0.68" filter="url(#dna-bleed)"/>
<path d="M 114.5 1564.4 C 300.1 1694.6, 766.4 1717.9, 1113.0 1563.8" fill="none" stroke="hsl(220 28% 22%)" stroke-width="13.75" stroke-linecap="round" opacity="0.68" filter="url(#dna-bleed)"/>
<path d="M 92.4 1703.9 C 325.8 1899.7, 712.9 1853.7, 1083.2 1698.0" fill="none" stroke="hsl(210 18% 10%)" stroke-width="13.70" stroke-linecap="round" opacity="0.68" filter="url(#dna-bleed)"/>
<path d="M 114.2 1841.5 C 344.0 2010.8, 817.4 1874.2, 1118.1 1843.0" fill="none" stroke="hsl(248 46% 17%)" stroke-width="12.32" stroke-linecap="round" opacity="0.68" filter="url(#dna-bleed)"/>
<path d="M 104.1 1987.1 C 492.0 2050.4, 782.8 1878.1, 1108.2 1995.3" fill="none" stroke="hsl(268 42% 29%)" stroke-width="10.67" stroke-linecap="round" opacity="0.68" filter="url(#dna-bleed)"/>
<path d="M 110.4 2125.2 C 357.8 2052.6, 792.1 1956.9, 1101.1 2117.5" fill="none" stroke="hsl(220 28% 22%)" stroke-width="9.53" stroke-linecap="round" opacity="0.68" filter="url(#dna-bleed)"/></g>
  <g id="detail-strokes"></g>
  <g id="ink-marks"><polygon points="872.2,744.7 848.6,750.8 859.0,732.7" fill="hsl(268 42% 29%)" opacity="0.27" transform="rotate(131.3 860.2 742.8)"/></g>
  <rect width="1200" height="1200" fill="hsl(248 46% 17%)" opacity="0.06" style="mix-blend-mode:screen"/>
</svg>