<svg xmlns="http://www.w3.org/2000/svg" viewBox="0 0 1200 1200" width="1200" height="1200">
  <defs>
    <filter id="v2-atmo-blur" x="-50%" y="-50%" width="200%" height="200%">
    <feGaussianBlur stdDeviation="28"/>
  </filter>
    <filter id="v2-light-blur" x="-60%" y="-60%" width="220%" height="220%">
    <feGaussianBlur stdDeviation="18"/>
  </filter>
    <filter id="v2-sig-blur" x="-80%" y="-80%" width="260%" height="260%">
    <feGaussianBlur stdDeviation="3"/>
  </filter>
  </defs>
  <g id="v2-background">
    <rect width="1200" height="1200" fill="#000000"/>
    <rect width="1200" height="1200" fill="hsl(18 55% 10%)" opacity="0.365"/>
    <ellipse cx="324.0" cy="965.7" rx="85.0" ry="147.1" fill="hsl(165 50% 38%)" opacity="0.118" filter="url(#v2-atmo-blur)"/>
<ellipse cx="918.9" cy="244.7" rx="151.8" ry="114.4" fill="hsl(165 50% 38%)" opacity="0.100" filter="url(#v2-atmo-blur)"/>
<ellipse cx="467.1" cy="1029.1" rx="121.4" ry="60.6" fill="hsl(165 50% 38%)" opacity="0.098" filter="url(#v2-atmo-blur)"/>
<ellipse cx="579.2" cy="849.5" rx="86.4" ry="91.6" fill="hsl(32 78% 42%)" opacity="0.109" filter="url(#v2-atmo-blur)"/>
<ellipse cx="646.3" cy="670.9" rx="132.0" ry="155.0" fill="hsl(165 50% 38%)" opacity="0.133" filter="url(#v2-atmo-blur)"/>
<ellipse cx="1123.8" cy="863.0" rx="155.1" ry="59.2" fill="hsl(165 50% 38%)" opacity="0.103" filter="url(#v2-atmo-blur)"/>
<ellipse cx="795.5" cy="1070.5" rx="126.9" ry="145.5" fill="hsl(165 50% 38%)" opacity="0.126" filter="url(#v2-atmo-blur)"/>
<ellipse cx="777.9" cy="438.8" rx="131.0" ry="118.6" fill="hsl(165 50% 38%)" opacity="0.149" filter="url(#v2-atmo-blur)"/>
<ellipse cx="677.8" cy="729.7" rx="148.4" ry="163.9" fill="hsl(32 78% 42%)" opacity="0.108" filter="url(#v2-atmo-blur)"/>
<ellipse cx="1.4" cy="169.8" rx="123.6" ry="64.9" fill="hsl(165 50% 38%)" opacity="0.118" filter="url(#v2-atmo-blur)"/>
    <radialGradient id="v2-void-mask" cx="0.515" cy="0.524" r="50%">
      <stop offset="0%" stop-color="#000" stop-opacity="0.386"/>
      <stop offset="0.067" stop-color="#000" stop-opacity="0"/>
      <stop offset="100%" stop-color="#000" stop-opacity="0"/>
    </radialGradient>
    <rect width="1200" height="1200" fill="url(#v2-void-mask)"/>
  </g>
<g id="v2-rhythm"><path d="M 435.4 227.0 Q 629.6 193.8 816.6 159.5" fill="none" stroke="hsl(48 90% 55%)" stroke-width="7.24" stroke-linecap="round" opacity="0.571"/>
<path d="M 639.6 266.4 Q 724.3 326.7 847.6 482.0" fill="none" stroke="hsl(12 88% 48%)" stroke-width="10.10" stroke-linecap="round" opacity="0.571"/>
<path d="M 312.3 315.2 Q 520.1 191.0 694.9 156.5" fill="none" stroke="hsl(32 78% 42%)" stroke-width="13.17" stroke-linecap="round" opacity="0.571"/>
<path d="M 694.4 388.8 Q 644.5 566.4 686.6 813.9" fill="none" stroke="hsl(48 90% 55%)" stroke-width="12.42" stroke-linecap="round" opacity="0.571"/>
<path d="M 445.8 393.8 Q 576.5 300.1 714.9 145.6" fill="none" stroke="hsl(12 88% 48%)" stroke-width="15.20" stroke-linecap="round" opacity="0.571"/>
<path d="M 430.6 281.8 Q 559.8 309.0 762.6 323.9" fill="none" stroke="hsl(32 78% 42%)" stroke-width="13.56" stroke-linecap="round" opacity="0.571"/>
<path d="M 605.0 306.9 Q 764.1 454.7 932.3 565.4" fill="none" stroke="hsl(48 90% 55%)" stroke-width="10.23" stroke-linecap="round" opacity="0.571"/>
<path d="M 346.3 342.7 Q 486.1 188.6 580.4 79.2" fill="none" stroke="hsl(12 88% 48%)" stroke-width="13.84" stroke-linecap="round" opacity="0.571"/>
<path d="M 673.5 433.9 Q 767.0 501.2 951.7 585.5" fill="none" stroke="hsl(32 78% 42%)" stroke-width="9.56" stroke-linecap="round" opacity="0.571"/>
<path d="M 490.2 397.9 Q 451.2 246.8 503.4 70.1" fill="none" stroke="hsl(48 90% 55%)" stroke-width="10.27" stroke-linecap="round" opacity="0.571"/>
<path d="M 435.0 315.1 Q 654.2 337.8 891.5 300.0" fill="none" stroke="hsl(12 88% 48%)" stroke-width="10.71" stroke-linecap="round" opacity="0.571"/>
<path d="M 586.0 335.4 Q 700.1 406.3 898.1 542.2" fill="none" stroke="hsl(32 78% 42%)" stroke-width="12.70" stroke-linecap="round" opacity="0.571"/>
<path d="M 342.6 409.0 Q 555.5 306.3 683.9 302.7" fill="none" stroke="hsl(48 90% 55%)" stroke-width="10.66" stroke-linecap="round" opacity="0.571"/>
<path d="M 662.6 474.0 Q 851.9 510.1 984.7 595.0" fill="none" stroke="hsl(12 88% 48%)" stroke-width="8.08" stroke-linecap="round" opacity="0.571"/>
<path d="M 443.9 497.8 Q 561.6 464.8 773.2 494.1" fill="none" stroke="hsl(32 78% 42%)" stroke-width="10.61" stroke-linecap="round" opacity="0.571"/>
<path d="M 560.0 273.1 Q 600.5 171.2 664.5 -28.7" fill="none" stroke="hsl(48 90% 55%)" stroke-width="15.31" stroke-linecap="round" opacity="0.571"/>
<path d="M 471.3 280.7 Q 492.3 434.6 470.2 639.1" fill="none" stroke="hsl(12 88% 48%)" stroke-width="6.30" stroke-linecap="round" opacity="0.571"/>
<path d="M 453.5 387.4 Q 494.4 282.7 615.6 91.7" fill="none" stroke="hsl(32 78% 42%)" stroke-width="13.39" stroke-linecap="round" opacity="0.571"/>
<path d="M 577.8 482.8 Q 666.0 600.2 831.9 737.4" fill="none" stroke="hsl(48 90% 55%)" stroke-width="15.94" stroke-linecap="round" opacity="0.571"/>
<path d="M 450.6 550.1 Q 677.9 512.0 825.9 552.6" fill="none" stroke="hsl(12 88% 48%)" stroke-width="10.24" stroke-linecap="round" opacity="0.571"/>
<path d="M 487.0 384.9 Q 633.1 357.5 802.3 285.2" fill="none" stroke="hsl(32 78% 42%)" stroke-width="13.71" stroke-linecap="round" opacity="0.571"/>
<path d="M 520.4 405.8 Q 661.4 549.7 745.8 613.0" fill="none" stroke="hsl(48 90% 55%)" stroke-width="12.82" stroke-linecap="round" opacity="0.571"/>
<path d="M 478.5 414.0 Q 582.2 269.5 636.5 147.8" fill="none" stroke="hsl(12 88% 48%)" stroke-width="8.93" stroke-linecap="round" opacity="0.571"/>
<path d="M 557.4 503.8 Q 620.3 649.4 760.4 779.0" fill="none" stroke="hsl(32 78% 42%)" stroke-width="13.12" stroke-linecap="round" opacity="0.571"/>
<path d="M 574.5 483.4 Q 611.1 357.3 735.5 228.5" fill="none" stroke="hsl(48 90% 55%)" stroke-width="10.26" stroke-linecap="round" opacity="0.571"/>
<path d="M 661.8 311.6 Q 681.5 169.6 797.9 -11.8" fill="none" stroke="hsl(12 88% 48%)" stroke-width="7.30" stroke-linecap="round" opacity="0.571"/>
<path d="M 481.3 490.3 Q 616.9 584.2 721.6 685.9" fill="none" stroke="hsl(32 78% 42%)" stroke-width="14.19" stroke-linecap="round" opacity="0.571"/>
<path d="M 525.4 394.8 Q 568.1 226.3 632.3 70.2" fill="none" stroke="hsl(48 90% 55%)" stroke-width="7.39" stroke-linecap="round" opacity="0.571"/>
<path d="M 425.1 411.4 Q 403.2 543.5 425.7 773.0" fill="none" stroke="hsl(12 88% 48%)" stroke-width="16.07" stroke-linecap="round" opacity="0.571"/>
<path d="M 663.0 392.4 Q 632.5 214.4 689.5 23.7" fill="none" stroke="hsl(32 78% 42%)" stroke-width="15.86" stroke-linecap="round" opacity="0.571"/>
<path d="M 540.0 477.0 Q 710.4 408.2 873.7 334.2" fill="none" stroke="hsl(48 90% 55%)" stroke-width="9.23" stroke-linecap="round" opacity="0.571"/>
<path d="M 713.2 588.5 Q 844.9 506.4 1057.5 516.1" fill="none" stroke="hsl(12 88% 48%)" stroke-width="7.09" stroke-linecap="round" opacity="0.571"/>
<path d="M 523.7 569.9 Q 609.7 505.3 783.6 351.3" fill="none" stroke="hsl(32 78% 42%)" stroke-width="10.16" stroke-linecap="round" opacity="0.571"/></g>
<g id="v2-particles"><circle cx="337.2" cy="333.5" r="5.35" fill="hsl(165 50% 38%)" opacity="0.338"/>
<circle cx="470.4" cy="296.8" r="1.74" fill="hsl(12 88% 48%)" opacity="0.756"/>
<circle cx="371.1" cy="274.6" r="3.25" fill="hsl(165 50% 38%)" opacity="0.286"/>
<circle cx="322.1" cy="259.1" r="4.95" fill="hsl(165 50% 38%)" opacity="0.765"/>
<circle cx="259.7" cy="321.5" r="5.27" fill="hsl(12 88% 48%)" opacity="0.451"/>
<circle cx="373.4" cy="186.2" r="2.40" fill="hsl(165 50% 38%)" opacity="0.744"/>
<circle cx="499.8" cy="352.5" r="3.37" fill="hsl(165 50% 38%)" opacity="0.561"/>
<circle cx="552.7" cy="363.9" r="1.96" fill="hsl(165 50% 38%)" opacity="0.498"/>
<circle cx="369.1" cy="183.1" r="8.08" fill="hsl(12 88% 48%)" opacity="0.441"/>
<circle cx="472.4" cy="420.0" r="4.83" fill="hsl(12 88% 48%)" opacity="0.534"/>
<circle cx="420.9" cy="254.1" r="7.38" fill="hsl(165 50% 38%)" opacity="0.762"/>
<circle cx="512.0" cy="306.8" r="4.71" fill="hsl(165 50% 38%)" opacity="0.312"/>
<circle cx="389.3" cy="316.6" r="4.99" fill="hsl(165 50% 38%)" opacity="0.566"/>
<circle cx="364.6" cy="213.5" r="7.21" fill="hsl(12 88% 48%)" opacity="0.599"/>
<circle cx="233.4" cy="106.5" r="3.86" fill="hsl(12 88% 48%)" opacity="0.450"/>
<circle cx="478.5" cy="317.8" r="6.82" fill="hsl(12 88% 48%)" opacity="0.637"/>
<circle cx="317.7" cy="259.2" r="6.40" fill="hsl(12 88% 48%)" opacity="0.681"/>
<circle cx="458.0" cy="301.1" r="6.98" fill="hsl(165 50% 38%)" opacity="0.269"/>
<circle cx="404.2" cy="368.6" r="7.59" fill="hsl(165 50% 38%)" opacity="0.378"/>
<circle cx="281.1" cy="358.0" r="7.56" fill="hsl(12 88% 48%)" opacity="0.396"/>
<circle cx="458.1" cy="210.2" r="6.58" fill="hsl(165 50% 38%)" opacity="0.683"/></g>
<g id="v2-lighting">
    <radialGradient id="v2-halo" cx="50%" cy="50%" r="50%">
      <stop offset="0%" stop-color="hsl(12 88% 48%)" stop-opacity="0.513"/>
      <stop offset="55%" stop-color="hsl(48 90% 55%)" stop-opacity="0.180"/>
      <stop offset="100%" stop-color="#000" stop-opacity="0"/>
    </radialGradient>
    <ellipse cx="532.4" cy="315.2" rx="486.1" ry="398.6" fill="url(#v2-halo)"/>
    <line x1="532.4" y1="315.2" x2="1020.4" y2="-129.2" stroke="hsl(12 88% 48%)" stroke-width="150.0" stroke-linecap="round" opacity="0.262" filter="url(#v2-light-blur)"/>
<line x1="532.4" y1="315.2" x2="1143.6" y2="564.1" stroke="hsl(12 88% 48%)" stroke-width="150.0" stroke-linecap="round" opacity="0.251" filter="url(#v2-light-blur)"/>
<line x1="532.4" y1="315.2" x2="655.9" y2="-333.2" stroke="hsl(12 88% 48%)" stroke-width="150.0" stroke-linecap="round" opacity="0.241" filter="url(#v2-light-blur)"/>
<line x1="532.4" y1="315.2" x2="922.3" y2="-217.4" stroke="hsl(12 88% 48%)" stroke-width="150.0" stroke-linecap="round" opacity="0.256" filter="url(#v2-light-blur)"/>
  </g>
<g id="v2-composition">
    <path d="M 572.4 315.2 Q 435.4 227.0 356.0 285.2" fill="none" stroke="hsl(12 88% 48%)" stroke-width="2.26" stroke-linecap="round" opacity="0.72"/>
<path d="M 492.4 315.2 Q 639.6 266.4 727.3 300.2" fill="none" stroke="hsl(12 88% 48%)" stroke-width="2.68" stroke-linecap="round" opacity="0.72"/>
<path d="M 572.4 315.2 Q 312.3 315.2 132.2 315.2" fill="none" stroke="hsl(12 88% 48%)" stroke-width="4.92" stroke-linecap="round" opacity="0.72"/>
<path d="M 492.4 315.2 Q 694.4 388.8 826.9 330.2" fill="none" stroke="hsl(12 88% 48%)" stroke-width="3.27" stroke-linecap="round" opacity="0.72"/>
<path d="M 572.4 315.2 Q 445.8 393.8 375.0 345.2" fill="none" stroke="hsl(12 88% 48%)" stroke-width="2.93" stroke-linecap="round" opacity="0.72"/>
    <circle cx="532.4" cy="315.2" r="6" fill="hsl(48 90% 55%)" opacity="0.85"/>
  </g>
<g id="v2-signature"><circle cx="636.6" cy="332.7" r="15.3" fill="hsl(50 58% 62%)" opacity="0.613" filter="url(#v2-sig-blur)"/>
<circle cx="556.5" cy="398.9" r="18.2" fill="hsl(50 58% 62%)" opacity="0.373" filter="url(#v2-sig-blur)"/>
<circle cx="476.2" cy="335.7" r="20.7" fill="hsl(50 58% 62%)" opacity="0.578" filter="url(#v2-sig-blur)"/>
<circle cx="498.8" cy="251.7" r="7.2" fill="hsl(50 58% 62%)" opacity="0.536" filter="url(#v2-sig-blur)"/>
<circle cx="615.7" cy="159.5" r="5.6" fill="hsl(50 58% 62%)" opacity="0.439" filter="url(#v2-sig-blur)"/>
<circle cx="532.4" cy="315.2" r="43.9" fill="none" stroke="hsl(50 58% 62%)" stroke-width="1.5" opacity="0.5"/></g>
</svg>